<svg xmlns:xlink="http://www.w3.org/1999/xlink" viewBox="0 0 20 20" xmlns="http://www.w3.org/2000/svg" width="20"  height="20" ><path d="M10 0C4.482 0 0 4.482 0 10a.503.503 0 0 0 .248.44c.156.09.348.09.504 0A.503.503 0 0 0 1 10c0-4.977 4.023-9 9-9a8.983 8.983 0 0 1 7.479 4H14a.503.503 0 0 0-.44.248.505.505 0 0 0 0 .504c.092.156.26.25.44.248h5V1a.501.501 0 0 0-.508-.508A.502.502 0 0 0 18 1v3.006A9.986 9.986 0 0 0 10 0zm9.492 9.492A.502.502 0 0 0 19 10c0 4.977-4.023 9-9 9a8.98 8.98 0 0 1-7.479-4H6a.501.501 0 0 0 .44-.246.508.508 0 0 0 0-.506A.507.507 0 0 0 6 14H1.723a.536.536 0 0 0-.194 0H1v5a.503.503 0 0 0 .248.44c.156.09.348.09.504 0A.503.503 0 0 0 2 19v-3.008A9.985 9.985 0 0 0 10 20c5.518 0 10-4.482 10-10a.501.501 0 0 0-.508-.508z" fill="#42526E"></path></svg>