<svg xmlns:xlink="http://www.w3.org/1999/xlink" xmlns="http://www.w3.org/2000/svg" viewBox="0 0 16 16" width="16"  height="16" ><path d="M4.8 2.24A4.165 4.165 0 0 0 .64 6.4c0 4.724 5.343 7.055 7.16 8.57l.2.17.2-.17c1.818-1.515 7.16-3.846 7.16-8.57a4.165 4.165 0 0 0-4.16-4.16c-1.297 0-2.437.616-3.2 1.55-.762-.934-1.902-1.55-3.2-1.55zm0 .64c1.228 0 2.3.63 2.93 1.58l.27.4.27-.4a3.516 3.516 0 0 1 6.45 1.94c0 4.128-4.61 6.264-6.72 7.93-2.11-1.666-6.72-3.802-6.72-7.93A3.516 3.516 0 0 1 4.8 2.88z" fill="#42526E"></path></svg>