<svg xmlns:xlink="http://www.w3.org/1999/xlink" viewBox="0 0 21 16" xmlns="http://www.w3.org/2000/svg" width="24"  height="24" ><path d="m19.18 2.002-.707-1.39a19.706 19.706 0 0 0-2.185-.46A13.2 13.2 0 0 0 14.357 0c-1.043 0-1.86.136-2.45.4s-1.054.732-1.394 1.376c-.306-.632-.77-1.088-1.39-1.367S7.655 0 6.57 0a11.9 11.9 0 0 0-1.824.153 21.03 21.03 0 0 0-2.16.46l-.66 1.28L0 2.002v13.84l8.596-.647c.313.173.62.303.92.39s.6.134.87.134c.288 0 .596-.044.926-.134a6.53 6.53 0 0 0 1.051-.39l8.636.646V2.103l-1.82-.1zm-.824-.512.962 1.77v10.313l-.962-1.89V1.5zm.59 12.53-7.148-.575c-.208.27-.558.462-1.047.574.1-.83.408-1.426.954-1.785s1.4-.54 2.568-.54c.54 0 1.124.038 1.747.115a22.24 22.24 0 0 1 1.99.341l.936 1.87zM10.74 3.24c0-.92.284-1.61.852-2.068S13.016.485 14.16.485a13.72 13.72 0 0 1 1.807.123c.62.082 1.252.205 1.907.37v10.637l-2.014-.307-1.494-.1c-1.678 0-2.888.4-3.626 1.228V3.24zM3.145.958l2-.354A12.73 12.73 0 0 1 6.79.485c1.208 0 2.123.25 2.744.75.497.396.744 1.07.744 2.025v9.216c-.45-.48-.932-.813-1.442-.994s-1.2-.273-2.105-.273a15.65 15.65 0 0 0-1.79.104c-.596.07-1.196.177-1.797.322V.958zm1.9 10.855c.65-.078 1.24-.118 1.773-.118 2.3 0 3.45.775 3.45 2.324-.477-.078-.843-.273-1.093-.583l-7.17.583.935-1.84 2.105-.366zM2.665 1.53v10.155l-.963 1.84V3.37l.962-1.84zM20.52 15.325l-8.3-.623c-.328.178-.64.312-.94.4a3.03 3.03 0 0 1-.872.134c-.26 0-.527-.044-.802-.134s-.56-.222-.853-.4l-8.262.623V2.43l1.222-.07-.48.8v11.353l7.835-.495c.378.326.86.49 1.448.49.58 0 1.057-.163 1.43-.49l7.864.495V3.162l-.357-.702 1.078.06v12.806z" fill="#9E1D22"></path></svg>