<svg xmlns:xlink="http://www.w3.org/1999/xlink" xmlns="http://www.w3.org/2000/svg" viewBox="0 0 22 15" width="24"  height="16" ><path d="M7.41.002a.427.427 0 0 0-.057.016.48.48 0 0 0-.363.36.55.55 0 0 0 .13.522l2.92 3.224H.444c-.256.014-.456.255-.443.537.012.283.23.503.486.49h9.553L7.12 8.374a.559.559 0 0 0 0 .737.44.44 0 0 0 .669 0l3.645-4.042a.44.44 0 0 0 .073-.064l.03-.048c.01-.01.02-.02.028-.032a.464.464 0 0 0 .044-.096l.014-.032v-.016l.015-.049a.612.612 0 0 0 0-.16v-.048l-.015-.032v-.016c-.003-.01-.009-.022-.014-.032v-.016l-.015-.032-.014-.016-.015-.033a.453.453 0 0 0-.058-.08h-.014a.306.306 0 0 0-.03-.032L7.79.162a.45.45 0 0 0-.38-.16zm7.093 6.75a.455.455 0 0 0-.276.144l-3.645 4.042-.044.016c-.01.01-.02.02-.029.032v.016c-.01.01-.02.02-.03.033a.292.292 0 0 0-.028.032v.016a.306.306 0 0 0-.03.032v.016a.56.56 0 0 0-.057.176v.113a.535.535 0 0 0 .058.192c.003.01.009.022.014.032l.015.016.014.032.015.016.014.016.015.016c.025.03.054.058.087.08l3.631 4.027a.442.442 0 0 0 .669 0 .56.56 0 0 0 0-.738l-2.92-3.224h9.553a.46.46 0 0 0 .408-.255.562.562 0 0 0 0-.517.46.46 0 0 0-.408-.255h-9.553l2.92-3.224a.552.552 0 0 0 .1-.601.455.455 0 0 0-.493-.281z" fill="#42526E"></path></svg>