<svg xmlns:xlink="http://www.w3.org/1999/xlink" xmlns="http://www.w3.org/2000/svg" viewBox="0 0 16 16" width="16"  height="16" ><path d="M1.278 0C2.51 0 3.575.865 3.86 2.072l.035.166.168.977L16 4.21l-1.248 5.3a1.703 1.703 0 0 1-1.5 1.315l-.145.007H5.38l.327 1.893a.97.97 0 0 0 .836.807l.116.007h8.075v.493h-1.215c.154.207.249.46.249.738 0 .677-.544 1.231-1.208 1.231-.664 0-1.207-.554-1.207-1.23 0-.232.066-.447.177-.632l.072-.107H8.446c.154.207.249.46.249.738 0 .677-.544 1.231-1.208 1.231-.664 0-1.207-.554-1.207-1.23 0-.283.099-.542.257-.75a1.46 1.46 0 0 1-1.276-1.07l-.03-.14L3.418 2.324A2.193 2.193 0 0 0 1.837.566a.982.982 0 0 1-.871 1.403A.978.978 0 0 1 0 .985C0 .482.375.064.854.007L.966 0h.312zm2.88 3.725 1.141 6.605h7.807l.13-.007c.39-.044.732-.283.917-.633l.056-.12.045-.14 1.126-4.77-11.223-.935zM9.707 5.3c.187 0 .336.151.336.337v1.346h1.339a.336.336 0 1 1 0 .673h-1.34v1.346a.335.335 0 0 1-.669 0V7.656h-1.34a.336.336 0 0 1 .001-.673h1.34V5.637c0-.186.148-.337.334-.337z" fill="#42526E"></path></svg>